<?xml version="1.0" encoding="utf-8"?>
<!-- Generator: Adobe Illustrator 21.1.0, SVG Export Plug-In . SVG Version: 6.00 Build 0)  -->
<svg version="1.1" id="Layer_1" xmlns="http://www.w3.org/2000/svg" xmlns:xlink="http://www.w3.org/1999/xlink" x="0px" y="0px"
	 viewBox="0 0 306 306" style="enable-background:new 0 0 306 306;" xml:space="preserve">
<style type="text/css">
	.st0{fill:#DEDDD2;}
	.st1{fill-rule:evenodd;clip-rule:evenodd;fill:#353532;}
</style>
<rect x="-8" y="-7.3" class="st0" width="323.3" height="323.3"/>
<g>
	<g>
		<path class="st1" d="M212.8,161.4c-0.3-0.6-0.5-1.3-0.8-1.9c-0.2-0.3-0.4-0.6-0.6-0.9c-0.2-0.2-0.6-0.4-0.7-0.6
			c0-0.1-0.1-0.2-0.2-0.2c-0.1-0.1,0-0.2,0-0.3c0.2-0.4-0.6-1.2-0.8-1.5c-0.2-0.3-0.4-0.6-0.6-0.9c-0.1-0.1-0.1-0.3-0.2-0.5
			c-0.2-0.3-0.3-0.2-0.5,0c0,0,0,0-0.1,0c0,0,0,0,0-0.1c0-0.6-0.3-1.2-0.7-1.6c-0.2-0.2-0.4-0.4-0.6-0.7c-0.2-0.2-0.6-0.8-0.9-0.8
			c-0.1,0-0.3,0.1-0.4,0.1c-0.1,0-0.1-0.1-0.1-0.1c0,0,0.1,0.1,0.1,0c0.1-0.1-0.8-1-0.9-1c-0.3-0.2-0.5-0.5-0.8-0.7
			c-0.6-0.5-1.2-0.8-1.8-1.2c-1.1-0.6-2.2-1.4-3.2-2.1c-1-0.7-2.3-1-3.5-1.2c-1.1-0.2-2.2-0.3-3.3-0.5c-1-0.2-2-0.4-3-0.5
			c-2.1-0.2-4.1-0.2-6.2,0c-3,0.3-6,0.9-8.7,2.3c-0.2-0.2-0.4-0.5-0.6-0.7c-0.5-0.8-1-1.6-1.5-2.4c-0.3-0.4-0.6-0.8-0.9-1.2
			c-0.3-0.4-0.4-0.8-0.7-1.2c-0.4-0.6-0.8-1.3-1.3-1.9c-0.4-0.6-0.9-1.1-1.2-1.7c-0.4-0.7-1-1.4-1.4-2.1c-0.3-0.5-0.6-0.9-1-1.4
			c-0.2-0.2-0.3-0.4-0.5-0.6c-0.1-0.1-0.1-0.3-0.2-0.4c-0.4-0.6-0.9-1.2-1.3-1.8c-0.5-0.6-0.9-1.3-1.4-2c-0.1-0.2-1.3-1.6-1.3-1.7
			c1-1.2,1.9-2.3,2.7-3.6c0.8-1.2,1.8-2.3,2.5-3.7c1-1.3,2.1-3,3.4-4.3c0.7-1.1,1.6-2.1,2.4-3.2c0.8-1.1,1.8-2.1,2.5-3.2
			c0.2-0.3,0.1-0.3,0.2-0.6c0.3-0.3,0.7-0.8,0.9-1.1c1.3-2.1,3-4.2,4.3-6.2c0.6-0.6,1.1-1.3,1.6-1.9c0.5-0.7,1.3-1.2,1.6-2
			c0-0.1,0.1-0.2,0.1-0.3c0.2-0.6,0.8-1.1,1.2-1.5c0.4-0.6,0.9-1.2,1.3-1.8c0.8-1.2,1.6-2.5,2.6-3.7c0.6-1.5,1.4-1.6,1.7-2.8
			c1.7-2.4,3.3-5.2,4.8-7.5c0.7-1.3,2.1-3.1,3.3-4.6c0.8-1.1,1.5-2,2.3-3.1c0.5-0.6,0.7-1.2,1-1.8c0.2-0.4,1.5-2,0.9-3
			c-0.3-0.5-0.7-1-1.1-1.3c-0.2-0.2-0.6-0.2-0.8-0.4c-0.1-0.1-0.3-0.1-0.4-0.2c-0.1-0.1-0.1-0.3-0.2-0.4c-0.3-0.3-0.5-0.5-0.8-0.7
			c-0.4-0.3-0.7-0.6-1.1-0.8c-0.5-0.3-0.9-0.6-1.4-1c-0.3-0.2-0.5-0.4-0.8-0.5c-0.2-0.2-0.5-0.2-0.7-0.3c-0.2-0.1-0.4-0.3-0.6-0.5
			c-0.1-0.2-0.2-0.3-0.4-0.4c-0.1,0-0.3,0-0.4-0.1c-0.4-0.1-0.7-0.3-1.1-0.5c-0.9-0.3-1.3,0.7-1.8,1.2c-0.1,0.1-0.3,0.2-0.4,0.3
			c-0.3,0.3-0.5,0.7-0.8,0.9c-0.3,0.3-0.7,0.6-1,1c-0.5,0.6-0.9,1.3-1.3,2c-0.8,1.4-1.5,2.8-2.4,4.2c-0.7,1.2-1.5,2.3-2.3,3.5
			c-0.5,0.8-1,1.7-1.5,2.6c-0.6,0.9-1.3,1.6-1.9,2.4c-0.5,0.6-1,1.3-1.5,1.9c-0.4,0.6-0.8,1.2-1.3,1.8c-0.6,0.7-1,1.6-1.5,2.4
			c-0.7,1.1-1.4,2-2,3.2c-1,2.1-2.8,4.1-3.6,6.3c-1,1.3-1.9,2.5-2.8,3.9c-1.8,2.9-3.8,5.8-5.9,8.6c-0.3,0.4-0.7,0.7-1.1,1.1
			c-0.4,0.4-0.7,0.9-1,1.4c-0.6,0.9-1.2,1.9-1.9,2.8c-0.2,0.3-0.5,0.6-0.6,0.9c-0.1,0.4,0,0.8-0.2,1.1c-0.2,0.2-0.5,0.3-0.7,0.4
			c-0.3,0.2-0.4,0.4-0.6,0.7c-0.3,0.5-0.6,1.1-1.1,1.5c0.1-0.1-2.3-3.4-2.4-3.6c-1.4-2-2.9-4.1-4.3-6.1c-0.3-0.4-0.6-0.9-1-1.3
			c-0.3-0.4-0.5-0.8-0.9-1.2c-0.3-0.4-0.6-0.9-0.9-1.3c-0.6-0.9-1.3-1.8-1.9-2.7c-0.3-0.4-0.6-0.9-0.9-1.3c-0.3-0.4-0.4-0.8-0.7-1.2
			c0,0-0.1-0.1-0.1-0.1c0,0,0-0.1-0.1-0.1c-0.4-0.6-0.8-1.2-1.3-1.8c-0.4-0.5-0.9-0.9-0.9-1.6c0,0,0-0.1,0-0.1c0,0-0.1,0-0.1,0
			c-0.1-0.4-0.3-0.7-0.6-0.9c-0.5-0.6-0.8-1.2-1.1-1.9c-0.2-0.5-0.3-1-0.8-1.3c0,0-0.1-0.1-0.1-0.1c-0.2-0.2-0.2-0.5-0.3-0.7
			c-0.1-0.3-0.3-0.6-0.5-0.8c-0.3-0.3-0.6-0.4-0.8-0.7c-0.5-0.6-0.9-1.4-1.2-2.1c-0.3-0.8-0.7-1.5-1.2-2.2c-0.6-1-1.3-2-1.9-3
			c0-0.1-0.1-0.1-0.1-0.2c-0.1-0.2-0.3-0.4-0.4-0.6c-1.5-2.5-3.3-4.8-4.9-7.2c-0.6-1-1.3-2-2.1-2.9c-0.7-0.9-1.4-1.6-1.9-2.7
			c-0.3-0.6-0.6-1.2-1-1.8c-0.2-0.3-0.4-0.5-0.6-0.8c-0.2-0.2-0.3-0.5-0.5-0.7c-0.6-0.8-1.6-2-2.1-2.3c-0.6-0.7-2.6,0.4-4,1.2
			c-0.7,0.4-1.5,1.1-2.3,1.6c-0.4,0.3-0.9,0.4-1.3,0.6c-0.5,0.3-0.7,0.6-1.1,0.8c-0.2,0.1-0.6,0.2-0.8,0.5c-0.2,0.1-0.4,0.3-0.5,0.5
			c-0.2,0.5,0,0.8-0.5,1.1c-0.5,0.3-0.4,0.5-0.1,0.9c0.4,0.5,0.6,1.5,1.1,1.9c0.1,0.1,0.3,0.2,0.4,0.3c0.4,0.4,0.6,0.9,0.9,1.4
			c0.3,0.5,0.7,1,1.1,1.5c0.5,0.7,0.9,1.3,1.4,2c0.2,0.3,0.5,0.7,0.7,1c0.1,0.2,0.3,0.3,0.4,0.5c0.1,0.2,0.1,0.5,0.2,0.7
			c0.1,0.1,0.2,0.2,0.3,0.4c0.3,0.4,0.5,0.8,0.7,1.2c0.2,0.4,0.5,0.8,0.8,1.2c0.2,0.3,0.3,0.6,0.5,0.9c0.2,0.3,0.5,0.5,0.7,0.8
			c0.2,0.4,0.5,0.8,0.7,1.2c0.3,0.5,0.7,1,1.1,1.5c0.3,0.4,0.5,0.8,0.9,1.2c0.5,0.5,0.9,1,1.3,1.5c0.3,0.4,0.8,0.8,0.9,1.2
			c0.1,0.4,0.5,0.8,0.7,1.2c0.2,0.5,0.6,0.9,0.9,1.3c0.7,1,1.2,2.1,1.9,3.1c0.8,1.2,1.8,2.2,2.6,3.3c0.6,0.7,1.1,1.5,1.6,2.3
			c0.3,0.5,0.7,0.9,1,1.3c0.4,0.5,0.6,1.1,0.9,1.6c0.6,0.9,1.1,1.9,1.6,2.8c0.6,1.1,1.5,2.1,2.2,3.1c0.1,0.1,0.1,0.2,0.2,0.2
			c0.1,0.1,0.1,0.1,0.2,0.1c0.1,0.1,0.2,0.3,0.2,0.5c0.3,0.6,0.9,1,1.2,1.6c0.4,0.6,0.6,1.3,1.2,1.7c0.2,0.2,0.4,0.7,0.6,1
			c0.2,0.3,0.4,0.7,0.6,1c0.8,1.4,1.7,2.7,2.6,4c0.3,0.4,0.6,0.8,0.9,1.1c0.2,0.2,0.4,0.4,0.6,0.6c0.2,0.2,0.3,0.5,0.5,0.8
			c0.2,0.4,0.6,0.7,0.8,1.1c0.2,0.4,0.4,0.9,0.7,1.2c0.5,0.5,0.8,1.2,1.2,1.7c0.5,0.7,1.2,1.4,1.7,2.1c-1.1,1.6-2.3,3-3.5,4.6
			c-1.2,1.6-1.9,3.4-3.1,5c-2.4,3-4.1,6.6-6.7,9.4c-3-1.2-6.2-2.2-10.1-2.4c-4.1-0.2-8.3,0.5-12.2,1.9c-0.9,0.3-1.7,0.7-2.6,1.1
			c-0.4,0.2-0.9,0.4-1.3,0.7c-0.3,0.2-0.6,0.2-0.9,0.4c-0.5,0.4-1.1,0.6-1.6,1c-0.3,0.3-0.7,0.6-1.1,0.8c-0.4,0.3-0.8,0.5-1.1,0.9
			c-0.5,0.4-0.9,0.9-1.4,1.3c-0.4,0.4-0.9,0.9-1.3,1.3c-0.4,0.4-0.8,0.7-1.1,1.2c-0.3,0.4-0.6,0.7-0.9,1.1c-0.1,0.2-0.3,0.3-0.4,0.5
			c-0.6,1.1-1.4,2.1-2,3.1c-0.4,0.8-0.8,1.6-1.1,2.4c-0.4,0.9-0.8,1.9-1.1,2.8c-0.2,0.7-0.2,1.6-0.5,2.3c-0.4,1-0.5,2.1-0.8,3.1
			c-0.1,0.5-0.2,0.9-0.3,1.4c0,0.2-0.1,1.6,0.1,1.5c0.1,0,0.1-0.1,0.2-0.2c0.1-0.3,0.3-0.2,0.5,0c0.1,0.1,0.3,0.3,0.3,0.5
			c0.1,0.3,0,0.3-0.3,0.4c-0.2,0.1-0.6,0.2-0.8,0.5c-0.1,0.3,0,0.8,0,1.1c0,0.4,0,0.9,0,1.3c0,0.2,0.1,0.4,0.2,0.6
			c0.1,0.2,0.4,0.4,0.2,0.6c0,0-0.1,0.1-0.1,0.1c-0.3,0.3,0.2,1.5,0.3,1.9c0.2,0.7,0.4,1.4,0.6,2.1c0.1,0.4,0.3,0.8,0.4,1.2
			c0.1,0.3,0,0.7,0.2,1.1c0.2,0.6,0.7,1.2,1,1.9c0.7,1.3,1.3,2.7,2.1,4c0.6,0.9,1.1,1.6,1.7,2.3c0.8,0.9,1.4,1.8,2.3,2.6
			c1.9,1.9,4.4,3.7,7,5.2c1.3,0.7,2.4,1.5,3.9,2c3.2,0.8,7.4,1.8,11.9,1.5c4-0.2,7.9-1.2,11.4-3c1.2-0.6,2.4-1.3,3.6-2.1
			c0.4-0.3,3.3-2.1,3.1-2.5c0-0.1-0.1-0.1-0.1-0.2c0-0.1,0.5-0.2,0.6-0.2c0.2-0.1,0.4-0.3,0.6-0.5c0.2-0.2,0.3-0.4,0.5-0.6
			c0.1-0.1,0.3-0.2,0.4-0.3c0.2-0.2,0-0.4,0.1-0.6c0.1-0.2,0.2-0.4,0.4-0.5c0.2-0.1,0.3,0.1,0.5,0c0.2-0.2,0.5-0.6,0.7-0.8
			c0.1-0.1,1.1-1,0.5-1c-0.1,0-0.1-0.1-0.1-0.2c0-0.1,0-0.1,0.1-0.2c0.1-0.1,0.1-0.2,0.3-0.3c0.3-0.1,0.4,0,0.7-0.2
			c0.3-0.3,0.5-0.8,0.6-1.2c0.2-0.5,0.6-0.9,0.8-1.3c0.3-0.5,0.5-1,0.8-1.5c0.5-1,0.9-2.1,1.3-3.2c1.1-3.4,1.6-7.3,1.4-11.8
			c-0.3-5-2-9.1-3.9-12.4c-0.5-0.8-1-1.6-1.5-2.3c-0.3-0.4-0.5-0.8-0.7-1.2c-0.1-0.2-0.2-0.3-0.3-0.5c-0.2-0.3-0.3-0.7-0.6-1
			c-0.2-0.3-0.6-0.5-0.4-0.9c0.3-0.6,0.7-1.1,1.1-1.6c0.2-0.3,0.3-0.7,0.6-1.1c0.2-0.3,0.5-0.5,0.6-0.8c0.4-0.6,0.6-1.2,1-1.7
			c1.2-1.5,2.3-3.1,3.5-4.7c0.6-0.8,1.2-1.6,1.8-2.4c0.3-0.4,0.6-0.8,0.9-1.2c0.1-0.1,0.9-1.1,0.8-1.2c0.5,0.9,1.2,1.6,1.9,2.4
			c0.3,0.3,0.5,0.7,0.8,1.1c0.3,0.5,0.7,0.9,1,1.4c0.2,0.4,0.5,0.7,0.8,1.1c1,1.3,1.9,2.7,2.9,4c1,1.5,2.2,3.2,3.6,4.9
			c-0.8,1.2-2.1,2.2-2.6,3.4c-0.4,0.8-0.6,1.6-1.2,2.3c-0.5,0.8-1,1.7-1.3,2.5c-0.2,0.4-0.4,0.9-0.6,1.3c-0.2,0.4-0.3,0.7-0.5,1
			c0,0.1-0.1,0.1-0.1,0.2c0,0.1-0.1,0.2-0.1,0.3c-0.1,0.5-0.3,0.9-0.4,1.4c-0.1,0.5-0.2,1-0.3,1.6c-0.1,0.7-0.3,1.4-0.4,2.1
			c-0.1,0.7-0.2,1.5-0.2,2.2c-0.1,1.2,0,2.5,0,3.8c0,0.5,0,0.9,0.1,1.4c0.1,1,0.2,2,0.4,2.9c0.4,1.9,1,3.9,1.7,5.7
			c1.3,3.2,3.3,6.1,5.6,8.6c0.1-0.2,0.3-0.3,0.6-0.3c-0.1,0.2-0.3,0.3-0.5,0.3c0.4,0.5,0.7,0.9,1.1,1.3c0.1,0.1,0.3,0.4,0.3,0.4
			c0.4,0.2,0.9-0.4,1.5-0.1c0,0.2,0.1,0.3,0.1,0.5c-0.4-0.1-0.7-0.4-1,0c-0.1,0.1,0.6,0.7,0.7,0.8c0.2,0.2,0.3,0.4,0.5,0.5
			c0.2,0.2,0.5,0.3,0.7,0.5c0.4,0.3,0.9,0.6,1.3,0.9c0.4,0.3,0.8,0.6,1.2,0.8c0.8,0.4,1.6,0.9,2.4,1.3c1.1,0.5,2.4,0.8,3.7,1.2
			c0.7,0.2,1.5,0.4,2.2,0.6c1.7,0.4,3.4,0.6,5.2,0.8c1.1,0.1,3,0.1,4.4,0c7.3-0.4,13.9-3.9,18.6-8.6c5-4.9,8.4-11.9,8.8-19.8
			C215.9,170,214.6,165.3,212.8,161.4z M199.3,65.4c-0.1,0-0.3-0.1-0.4-0.1c-0.1,0-0.1-0.1-0.1-0.2c-0.1-0.2,0.2,0,0.2,0
			C199.1,65.2,199.3,65.3,199.3,65.4z M195.5,62.9c0,0.1-0.1,0.1-0.2,0c-0.1,0-0.1,0-0.2,0c-0.2-0.1,0-0.1,0.2-0.1
			C195.3,62.8,195.4,62.8,195.5,62.9z M194.6,62.5c0,0,0.1,0,0.2,0.1c0.1,0.1,0,0.2-0.1,0.2C194.6,62.7,194.5,62.6,194.6,62.5z
			 M194.3,80.1c-0.5,1.3-1.4,2.4-2.1,3.5C192.7,82.4,193.6,81.2,194.3,80.1z M189.6,63.2c0.1,0.1-0.2,0.4-0.3,0.4
			c-0.1,0.1-0.3,0.4-0.4,0.4c-0.1-0.1,0-0.3,0.1-0.4c0.1-0.1,0.2-0.2,0.3-0.3C189.3,63.3,189.5,63.1,189.6,63.2z M188.6,64.2
			c0.1,0,0,0.2,0,0.2c0,0.1-0.1,0.2-0.2,0.3c0,0-0.1,0.1-0.1,0.1c-0.2,0,0.1-0.2,0.1-0.3C188.4,64.4,188.5,64.3,188.6,64.2z
			 M188.6,89.2c0,0-0.1,0.1-0.1,0.2c-0.1,0.1-0.1,0.1-0.2,0.2c0,0-0.2,0.1-0.2,0.1c-0.1-0.1,0.2-0.3,0.2-0.3
			C188.4,89.2,188.4,89.2,188.6,89.2C188.6,89.1,188.6,89.1,188.6,89.2z M187.9,90c0.2,0.2-0.2,0.6-0.5,0.8
			C187.6,90.6,187.8,90.3,187.9,90z M185.2,70.5c0.1,0,0.2,0,0.3,0.1c0.1,0.1,0.1,0.4-0.1,0.4C185.2,71,185,70.7,185.2,70.5z
			 M185.3,93.4c0.1,0.2,0,0.3-0.2,0.4c-0.2,0-0.2-0.2-0.2-0.4C185.1,93.4,185.2,93.4,185.3,93.4z M187.2,91.2c0.1,0,0,0.1,0,0.2
			c0,0.1-0.1,0.1-0.2,0.2c-0.2,0.1-0.3,0.5-0.5,0.7c-0.2,0.3-0.4,0.6-0.6,0.9c-0.2,0.3-0.3,0.5-0.5,0.8c-0.1,0.1-0.1,0.3-0.2,0.4
			c0,0.1-0.1,0.1-0.2,0.2c0,0-0.1,0.1-0.2,0.1c0-0.3,0.4-0.6,0.5-0.8c0.2-0.3,0.4-0.6,0.6-0.9c0.2-0.3,0.4-0.6,0.6-0.9
			c0.1-0.2,0.2-0.3,0.3-0.4C187,91.4,187,91.2,187.2,91.2z M184.1,76.5C184.1,76.5,184.1,76.5,184.1,76.5c0.1,0,0.3,0,0.3,0.1
			c0,0.1,0,0.3-0.1,0.3C184.1,76.9,184,76.6,184.1,76.5z M183.6,96.7c0.4-0.2-0.3-0.6-0.4-0.3c0,0,0,0.1,0,0.1c0,0.1,0,0.2,0.1,0.2
			C183.4,96.7,183.5,96.7,183.6,96.7z M182.5,94.8c0.1,0.1,0,0.5-0.2,0.5c-0.1,0-0.2-0.1-0.3-0.1c-0.1-0.1-0.1-0.4,0.1-0.4
			C182.2,94.7,182.4,94.7,182.5,94.8z M181.8,98.6c0.1-0.1-0.2,0.4-0.3,0.4C181.6,98.8,181.7,98.7,181.8,98.6z M181.7,96
			c-0.1,0-0.3,0-0.3-0.1c0-0.1,0.1-0.1,0.2-0.1C181.7,95.8,181.7,95.9,181.7,96z M181.3,90.3C181.3,90.3,181.3,90.3,181.3,90.3
			c0.2,0,0.2,0.2,0.1,0.2c-0.1,0.1-0.1-0.1-0.1-0.1C181.3,90.4,181.3,90.3,181.3,90.3z M180.5,100.2c-0.2,0-0.2-0.1-0.2-0.3
			c0.1,0,0.1,0,0.2,0C180.5,100,180.5,100.1,180.5,100.2z M180.2,90.7C180.2,90.7,180.2,90.7,180.2,90.7c0.1,0,0.2,0,0.2,0
			c0,0.1-0.1,0.1-0.3,0.1C180.2,90.8,180.1,90.7,180.2,90.7z M179.4,84.4c0,0,0.1,0,0.1,0.1C179.7,84.7,179.2,84.7,179.4,84.4z
			 M179.1,90.6c0,0,0.2,0.1,0.2,0.2c0,0.1-0.1,0.2-0.2,0.1C179,90.8,179.1,90.6,179.1,90.6z M172.9,90.8c0.2,0,0.3,0,0.3,0.2
			C173,91,172.9,90.9,172.9,90.8z M173.1,103.4c0-0.2,0.1-0.2,0.3-0.2C173.4,103.4,173.3,103.5,173.1,103.4z M173.4,92.9
			c0,0,0.1,0,0.1,0c0.2-0.1,0.1,0.4-0.1,0.1C173.3,92.9,173.3,92.9,173.4,92.9z M173.7,109.9c0-0.1,0.1-0.2,0.2-0.3
			c0-0.1,0.1-0.2,0.1-0.2c0.1-0.1,0.2-0.2,0.1,0c0,0.1-0.1,0.2-0.2,0.3C173.9,109.7,173.8,109.9,173.7,109.9z M174.1,108.7
			c0,0-0.1,0-0.1,0c-0.1,0-0.2,0-0.3-0.1c-0.1-0.1,0.1-0.3,0.1-0.4c0.1-0.1,0.2-0.2,0.3-0.2C174.3,108.2,174.3,108.6,174.1,108.7z
			 M175.4,107.5c-0.2,0.1-0.3,0.3-0.4,0.5c-0.1,0.2-0.2,0.5-0.4,0.7c-0.1,0.1-0.1,0.2-0.2,0.2c0,0,0-0.1,0-0.1c0-0.1,0-0.1,0.1-0.2
			c0.1-0.1,0.1-0.2,0.2-0.4c0.1-0.2,0.3-0.4,0.4-0.6c0.2-0.2,0.3-0.5,0.5-0.7c0.1-0.1,0.2-0.2,0.3-0.3c0,0,0.2-0.3,0.3-0.2
			c0.1,0.1-0.3,0.4-0.3,0.5C175.8,107.1,175.6,107.3,175.4,107.5z M175.8,93.5c0.1,0,0,0.2,0,0.2c-0.1,0.1-0.3,0.2-0.4,0.1
			c0-0.1,0-0.2,0.1-0.2C175.6,93.5,175.7,93.5,175.8,93.5z M176.6,105.6c-0.1-0.1,0.1-0.3,0.2-0.5
			C176.9,105.3,176.7,105.5,176.6,105.6z M176.9,82.1c0.1,0,0.3,0.1,0.3,0.2c0,0.1,0,0.2-0.1,0.3c-0.1,0.1-0.2-0.1-0.3-0.2
			C176.8,82.4,176.8,82.2,176.9,82.1z M177.1,93.2C177.1,93.3,177.1,93.3,177.1,93.2c-0.2,0-0.3-0.2-0.2-0.3c0.1-0.1,0.2-0.1,0.3,0
			C177.3,93,177.2,93.2,177.1,93.2z M178,101.7c0,0,0-0.2,0.1-0.2c0.1,0,0.2,0,0.3,0c0,0.1,0,0.1,0,0.2
			C178.2,101.8,178,101.8,178,101.7z M178.7,79.3c0,0,0,0.1,0,0.1c-0.1,0.1-0.2,0.2-0.2,0.3c-0.1,0.1-0.2,0.1-0.2,0.2
			c0,0.1,0,0.2-0.1,0.2c0-0.1,0-0.2,0-0.2c0-0.1,0.1-0.2,0.2-0.2c0.1-0.1,0.1-0.2,0.2-0.3C178.6,79.3,178.7,79.2,178.7,79.3z
			 M178.1,80.3c0,0.1-0.1,0.2-0.1,0.2c0,0-0.3,0.4-0.3,0.4C177.9,81,177.9,80.3,178.1,80.3z M177.5,80.7c0,0,0,0.1,0,0.1
			c0,0.1-0.1,0.2-0.2,0.3c-0.2,0.1-0.1-0.1,0-0.2C177.3,80.8,177.4,80.7,177.5,80.7C177.5,80.7,177.5,80.7,177.5,80.7z M177.3,81.3
			c0,0,0,0.2-0.1,0.2c-0.1,0.1-0.1,0.2-0.2,0.2c0,0,0,0,0-0.1c0-0.1,0-0.1,0.1-0.2C177.1,81.5,177.1,81.4,177.3,81.3
			C177.2,81.3,177.3,81.3,177.3,81.3z M176.9,81.6C176.9,81.6,176.9,81.6,176.9,81.6c0,0.2-0.1,0.3-0.1,0.3c-0.2,0,0-0.1,0-0.2
			C176.8,81.7,176.8,81.6,176.9,81.6z M176.6,82.1c0.1,0.2-0.3,0.4-0.4,0.6C176.1,82.6,176.5,82.3,176.6,82.1z M173.1,87.1
			c0-0.1,0.2-0.3,0.3-0.3c0.1-0.1,0.2-0.3,0.3-0.4c0.2-0.3,0.4-0.6,0.6-0.9c0.4-0.6,0.7-1.3,1.2-1.9c0.1-0.1,0.2-0.5,0.4-0.5
			c0,0-0.1,0.2-0.1,0.2c-0.1,0.1-0.2,0.3-0.3,0.4c-0.2,0.3-0.4,0.6-0.6,0.9c-0.4,0.6-0.8,1.3-1.2,1.9c-0.2,0.3-0.3,0.5-0.4,0.8
			c-0.1,0.1-0.2,0.3-0.3,0.4c0,0-0.1,0.1-0.1,0.1c0,0,0-0.1,0-0.2c0-0.1,0.1-0.1,0.1-0.2c0-0.1,0.1-0.1,0.1-0.2
			C173.1,87.2,173.1,87.2,173.1,87.1z M172.9,88C172.9,88,172.9,88,172.9,88c0.1,0,0.1,0.1,0.1,0.1c0,0.1-0.1,0.2-0.1,0.2
			c0,0-0.1,0-0.1-0.1c0,0,0-0.1,0.1-0.1C172.8,88.2,172.8,88.1,172.9,88z M172.8,90.1c0.2,0,0.1,0.2,0.1,0.3
			C172.7,90.4,172.7,90.2,172.8,90.1z M172.8,95.6c0,0,0.1,0.3-0.1,0.2c-0.1,0-0.1-0.2,0-0.2C172.7,95.6,172.8,95.6,172.8,95.6z
			 M170.3,112.1c-0.2,0-0.1-0.3-0.3-0.4c0-0.2,0.3,0,0.3-0.1C170.5,111.6,170.4,112,170.3,112.1z M170.2,94.7c0.2,0,0.3,0.1,0.3,0.3
			C170.3,95.2,170.1,94.9,170.2,94.7z M171,104.9c-0.1,0-0.1,0-0.2,0c-0.3-0.1,0.1-0.4,0.3-0.3c0,0,0,0.2,0,0.2
			C171.1,104.9,171.1,104.9,171,104.9z M170.7,94.4c0-0.3,0.1-0.3,0.4-0.3C171.1,94.3,171,94.4,170.7,94.4z M170.9,98.1
			c-0.1,0,0-0.3,0-0.4c0,0,0-0.1,0-0.1c0,0,0.2,0,0.2,0.1c0.1,0.1,0.1,0.1,0,0.2C171.1,98.1,171,98.1,170.9,98.1z M172,104.8
			c-0.4,0.1-0.4-0.5,0-0.5C172.1,104.4,172.1,104.7,172,104.8z M172.2,89.1c0.1,0.1-0.2,0.4-0.1,0.5
			C171.9,89.5,172.1,89.3,172.2,89.1z M172,89.7c-0.2,0.2-0.3,0.4-0.5,0.6C171.5,90.2,171.8,89.8,172,89.7z M171.6,112.4
			c0,0.2-0.4,0.3-0.4,0C171.3,112.4,171.5,112.2,171.6,112.4z M171.2,110c0-0.1,0-0.2,0.1-0.3c0.1,0,0.1,0.1,0.2,0.1
			C171.5,110,171.4,110,171.2,110z M170.4,91.9c0.1-0.1,0.2-0.1,0.3-0.2c0.1-0.1,0.1-0.2,0.2-0.3c0.1-0.1,0.1-0.2,0.2-0.4
			c0-0.1,0.1-0.1,0.1-0.2c0.2-0.1,0.1,0.1,0,0.2c-0.1,0.1-0.2,0.2-0.3,0.3c-0.2,0.2-0.1,0.6-0.4,0.8c-0.2,0.1-0.3,0.2-0.4,0.4
			c0,0.1,0,0.2-0.1,0.3c0,0.1-0.1,0.1-0.1,0c0-0.1,0.1-0.3,0.2-0.4c0.1-0.1,0.1-0.2,0.2-0.3C170.3,92.1,170.3,92,170.4,91.9z
			 M169.2,111.6c0.2-0.1,0.2,0.3,0,0.3C169.2,111.8,169.2,111.7,169.2,111.6z M168.8,96.6c0,0,0.2,0,0.2,0c0.1,0.1,0,0.3-0.1,0.3
			C168.8,96.8,168.7,96.6,168.8,96.6z M167.7,102.5C167.7,102.5,167.8,102.5,167.7,102.5c0.1,0,0.2,0,0.2,0c0,0,0,0,0.1,0
			c0.1,0.1,0,0.4-0.1,0.4c-0.1,0-0.2-0.1-0.2-0.3C167.7,102.6,167.7,102.5,167.7,102.5z M165.2,121.1c0.4-0.7,0.8-1.3,1.3-1.9
			C166.1,120,165.9,120.3,165.2,121.1z M166,106.7c0.2-0.1,0.1,0.3,0.1,0.3C165.9,107,165.9,106.8,166,106.7z M165.5,100.3
			c0.1,0,0.1,0.1,0.3,0.1c0,0.1,0,0.2,0,0.3c-0.1,0.1-0.3,0.1-0.4,0C165.4,100.4,165.5,100.4,165.5,100.3z M165.3,101.4
			c0.1-0.1,0.2,0,0.3,0.1c0.1,0.1,0.1,0.3,0,0.4c-0.1,0.1-0.4,0.1-0.4-0.1C165.1,101.7,165.2,101.6,165.3,101.4
			C165.3,101.4,165.3,101.4,165.3,101.4z M165.3,112.3c0-0.1-0.2-0.1-0.2-0.3C165.2,111.1,166.3,112.3,165.3,112.3z M164.7,106
			c0.1,0,0.1,0.1,0.2,0.1C165.1,106.6,164.5,106.3,164.7,106z M164.8,121.7C164.8,121.7,164.8,121.7,164.8,121.7
			c-0.2,0.2-0.3,0.4-0.5,0.5C164.5,122,164.6,121.6,164.8,121.7z M163.6,123.2c0.1,0,0.1,0.1,0.3,0.1c-0.6,0.5-0.7,1-1.2,1.5
			C162.9,124.2,163.3,123.8,163.6,123.2z M112.9,75.8c0,0,0-0.2,0.1-0.2c0.1,0,0.2,0.1,0.1,0.2C113.1,75.8,113,75.8,112.9,75.8z
			 M116.6,65c-0.1,0.1-0.2,0-0.2-0.1c0,0,0-0.2,0.1-0.2C116.5,64.8,116.6,64.9,116.6,65C116.6,65,116.6,65,116.6,65z M120.6,85.2
			c0-0.1,0-0.1,0-0.2c0,0,0.2-0.1,0.2,0c0,0.1,0,0.2-0.1,0.2C120.8,85.2,120.6,85.3,120.6,85.2z M123.5,88.8
			c-0.1,0.1-0.1-0.1-0.1-0.1c0-0.1,0.1-0.2,0.2-0.1C123.6,88.6,123.5,88.8,123.5,88.8z M128.9,100.3c-0.2,0.1-0.2-0.1-0.2-0.3
			c0.1,0,0.1,0,0.2,0C128.9,100.1,128.9,100.2,128.9,100.3z M132.6,94c-0.1,0-0.1,0-0.2,0.1c-0.1,0.1,0-0.3,0-0.3
			C132.5,93.6,132.7,93.9,132.6,94z M135.5,92.2c-0.2,0.1-0.3-0.1-0.1-0.2c0.1,0,0.1-0.1,0.2-0.1C135.6,91.9,135.5,92.1,135.5,92.2z
			 M141.3,109.8c-0.1-0.3-0.2-0.4,0.1-0.5c0,0.1,0.2,0.2,0.1,0.4C141.4,109.6,141.5,109.8,141.3,109.8z M141.7,113.4
			c-0.1,0-0.1,0-0.2,0c0-0.1,0-0.2,0-0.3C141.7,113.1,141.7,113.2,141.7,113.4z M143.3,112c0.1,0,0.2,0,0.3,0c0,0.1,0.1,0.1,0.1,0.3
			C143.5,112.1,143.3,112.4,143.3,112z M145.2,111.9c-0.3,0-0.2-0.3-0.1-0.4C145.3,111.6,145.2,111.8,145.2,111.9z M91.7,178.8
			C91.7,178.9,91.6,178.9,91.7,178.8c-0.1,0.1-0.4,0-0.4,0C91.3,178.4,92,178.6,91.7,178.8z M91.3,173c-0.3-0.3-0.1-0.8,0.2-0.8
			C92,172.2,92.1,173.1,91.3,173z M91.9,171.7c-0.1,0-0.2,0-0.3,0c-0.1-0.2,0.1-0.2,0.1-0.3C91.9,171.4,91.9,171.5,91.9,171.7z
			 M92.5,173.8c0.1-0.2,0.3-0.1,0.4,0C92.8,174.1,92.8,173.7,92.5,173.8z M93.6,182.9c-0.1,0-0.2,0-0.2,0.1c-0.1,0-0.1-0.2-0.1-0.3
			C93.5,182.6,93.7,182.6,93.6,182.9z M94.2,169.6c-1-0.1-1-1.1-0.8-1.9c0-0.1,0.2-1.2,0.3-1.2c0.6-0.3,0.9,0.1,1.1,0.6
			C95,167.8,95.5,169.7,94.2,169.6z M96.7,164.7c0.1,0.1,0.1,0.2,0.1,0.3C96.6,165.1,96.7,164.8,96.7,164.7z M96.4,165.8
			c-0.1,0-0.2,0-0.3,0c0-0.1,0.1-0.1,0.1-0.2c0.1,0,0.1,0,0.2,0C96.4,165.7,96.4,165.7,96.4,165.8z M96.2,158.3c0-0.2,0-0.2,0.1-0.3
			c0.1,0,0.1,0.1,0.2,0.1C96.4,158.2,96.3,158.3,96.2,158.3z M96.7,182.5c-0.1-0.1-0.1-0.4,0.1-0.4C97,182.2,96.9,182.7,96.7,182.5z
			 M97.4,159.5c0.2-0.1,0.2,0.1,0.3,0.1C97.7,159.8,97.3,159.7,97.4,159.5z M97.5,171.7c-0.1-0.1-0.2-0.4-0.1-0.6
			c0.2,0,0.3,0.1,0.4,0.1C97.8,171.5,97.7,171.7,97.5,171.7z M97.8,155.2c-0.1,0,0-0.2-0.1-0.3c0.2,0,0.3,0.1,0.3,0.3
			C97.9,155.2,97.8,155.2,97.8,155.2z M98,164.8c0-0.2,0.1-0.2,0.2-0.3c0.2,0,0,0.3,0.3,0.3C98.3,164.9,98.1,164.9,98,164.8z
			 M101.9,151.7c0.2,0,0.1,0.2,0.1,0.4C101.8,152,101.8,151.9,101.9,151.7z M99.8,185c-0.2,0.1-0.2-0.1-0.3-0.2
			c0-0.1,0.2-0.1,0.3-0.1C99.8,184.8,99.8,184.9,99.8,185z M100.9,193.2c-0.1,0.2-0.5,0.2-0.6,0c0-0.2,0.2-0.3,0.4-0.3
			C100.8,192.8,100.9,193.1,100.9,193.2z M101.2,162.3c-0.2,0-0.2-0.2-0.1-0.3C101.2,162,101.3,162.1,101.2,162.3z M102,159.8
			c-0.1,0-0.2,0.2-0.2,0.2c-0.2,0.1-0.4-0.5,0.1-0.5C101.9,159.5,102,159.8,102,159.8C102,159.8,102,159.8,102,159.8z M122,148.7
			c0.2,0,0.2,0.1,0.2,0.3C122,149,121.9,148.8,122,148.7z M118.2,146.2c0.1-0.1,0.4,0,0.3,0.2c-0.1,0.1,0,0.3-0.2,0.1
			C118.2,146.5,118.1,146.3,118.2,146.2z M115.4,153.6c0.2,0,0.3,0,0.3,0.2C115.4,153.8,115.3,153.8,115.4,153.6z M106.1,148.8
			c0.1,0.1,0.5,0,0.4,0.3C106.2,149.1,106.1,149,106.1,148.8C106.1,148.7,106.1,148.8,106.1,148.8z M106.1,151.1c0.1,0,0.2,0,0.3,0
			c0.2,0.4-0.4,0.4-0.4,0.3C105.9,151.1,106,151.1,106.1,151.1z M103.6,155c0.1,0.3-0.2,0.4-0.4,0.3c0-0.2,0.2-0.1,0.1-0.3
			C103.4,154.9,103.4,155,103.6,155z M103.4,152.1c-0.1,0.1-0.2,0-0.3,0C103.1,151.9,103.4,151.8,103.4,152.1z M103.1,159.5
			c0,0,0.1-0.1,0.2,0c0,0.1-0.1,0.3-0.1,0.3C103.1,159.8,103,159.6,103.1,159.5z M102.9,160.6c0.3-0.4,1.2,0.6,0.4,0.9
			C102.8,161.6,102.7,160.9,102.9,160.6z M103,176.1c0-0.3,0-0.6,0-0.9C103,175.4,103.2,176.5,103,176.1z M136.3,190.5
			c-0.1,0.1-0.4,0-0.4-0.2c0-0.2,0.4-0.2,0.4,0C136.4,190.4,136.3,190.5,136.3,190.5z M135.8,188.6c-0.1-0.3,0.3-0.3,0.5-0.2
			c0.2,0.1,1,0.7,0.3,0.7C136.3,189.1,135.8,188.9,135.8,188.6z M135,184c0.1-0.6,0.8-1.3,1-1.8C136,182.7,135.2,183.5,135,184z
			 M136.9,179.8c-0.2,0.5-0.2,1.1-0.5,1.6c-0.2,0.4-0.7,0.8-1,1.2c-0.9,1.3-1.5,3-2.7,4.1c-0.4,0.3-0.9,0.6-1.4,1
			c-0.8,0.6-1.6,1.4-2.5,1.9c-0.5,0.3-1.3,0.5-1.9,0.8c-0.6,0.3-1.2,0.7-1.7,0.9c-1.5,0.6-4,0.7-5.5,0.6c-2.6-0.2-4.6-0.7-6.4-1.5
			c-0.7-0.3-1.3-0.7-1.9-1.1c-0.4-0.3-0.7-0.6-1.1-0.9c-0.3-0.3-0.7-0.4-1.1-0.5c-0.6-0.3-0.9-0.9-1.3-1.4c-0.8-1-1.5-2.2-2.2-3.3
			c-0.3-0.5-0.7-0.9-1-1.4c-0.4-0.6-0.5-1.4-0.6-2c-0.2-0.7-0.5-1.4-0.6-2.2c-0.1-0.3-0.1-0.6-0.2-0.9c-0.1-0.6-0.2-1.2-0.2-1.8
			c-0.1-1.2,0-2.4,0.2-3.6c0.2-0.9,0.7-1.8,1-2.7c0.1-0.4,0.1-0.9,0.1-1.3c0-0.3,0.2-0.5,0.3-0.8c0.1-0.2,0.1-0.6,0.3-0.8
			c0-0.1,0.1-0.1,0.1-0.2c0.2-0.2,0.2-0.5,0.3-0.8c0.2-0.3,0.4-0.6,0.6-0.9c0.4-0.6,0.8-1.2,1.3-1.8c0.9-1.2,1.9-2.2,3.2-3.1
			c2.7-1.8,6.6-3.1,11.2-2.8c3.8,0.2,6.7,1.7,9,3.3c1.1,0.8,2.2,1.8,3.2,3c1.6,1.9,3,4.5,3.5,7.5c0.2,1.3,0.2,2.7,0.5,4.1
			c0,0.3,0.2,0.6,0.3,0.9C138.4,176.9,137.4,178.4,136.9,179.8z M138.7,189c-0.1,0.1-0.4-0.1-0.3-0.3c0.2-0.2,0.4-0.1,0.3,0.1
			C138.8,188.9,138.8,188.9,138.7,189z M141,193.8c0,0-0.1,0-0.1,0c-0.1-0.1-0.1-0.2-0.1-0.3c0-0.3,0.2-0.2,0.3,0
			C141.1,193.6,141.1,193.8,141,193.8z M140.7,185.9C140.7,185.9,140.7,185.9,140.7,185.9c0-0.2,0.2-0.2,0.3-0.2
			c0.2,0,0.3,0.2,0.1,0.3C141,186,140.8,186,140.7,185.9z M143.8,190.8c0.1,0,0.1,0.2,0.1,0.3c0,0.4-0.4,0.2-0.5,0
			C143.2,190.8,143.6,190.8,143.8,190.8z M142.8,192.1C142.8,192.2,142.8,192.2,142.8,192.1c-0.2,0-0.2-0.1-0.1-0.2
			C142.7,191.9,142.9,192.1,142.8,192.1z M147.8,111.4c0-0.2,0.1-0.2,0.1-0.4c0.1,0,0.2,0.2,0.2,0.3
			C148,111.4,147.9,111.4,147.8,111.4z M149.2,114.5c-0.2-0.1-0.3-0.2-0.2-0.5c0.1,0,0.1,0,0.2,0
			C149.2,114.2,149.4,114.3,149.2,114.5z M151.9,116.4c-0.4,0.1-0.5-0.4-0.3-0.5C151.8,116,152,116.2,151.9,116.4z M158.5,117.5
			c-0.1,0-0.2,0-0.3,0c0.1-0.1,0.1-0.3,0.3-0.3C158.5,117.3,158.5,117.4,158.5,117.5z M158.2,112.2
			C158.2,112.2,158.1,112.1,158.2,112.2c-0.1-0.1,0-0.2,0-0.2c0,0,0.3,0.1,0.4,0.1c0,0,0,0.1,0,0.1c-0.1,0-0.1,0-0.2,0
			C158.3,112.1,158.3,112.1,158.2,112.2C158.2,112.1,158.2,112.2,158.2,112.2z M159.1,114.8c-0.1,0-0.1-0.1-0.3-0.1
			c-0.1-0.2,0.1-0.2,0.1-0.3c0.1,0,0.1,0.1,0.1,0C159.2,114.4,159.1,114.7,159.1,114.8z M159.4,111.6
			C159.4,111.6,159.4,111.6,159.4,111.6c0-0.3,0-0.5,0.3-0.4c0,0,0.2,0.1,0.2,0.1c0,0.1-0.1,0.2-0.1,0.2
			C159.7,111.6,159.5,111.7,159.4,111.6z M163.5,172c0.2-0.1,0.2,0.4,0,0.3C163.5,172.2,163.5,172.1,163.5,172z M162.8,172.9
			c0.3,0.3-0.3,0.7-0.3,1C162.4,173.6,162.7,173.2,162.8,172.9z M162.3,182.6c0.1,0,0.1,0.1,0.1,0.3c-0.2,0-0.2,0.2-0.3,0.3
			C162,183,162.2,182.8,162.3,182.6z M159.1,184.2c-0.1-0.1-0.1-0.3,0-0.4c0.1,0,0.2,0,0.3,0.1C159.4,184.1,159.3,184.2,159.1,184.2
			z M159.5,176.6c0-0.1,0-0.2,0.1-0.3c0.2,0,0.3,0.2,0.3,0.4C159.8,176.6,159.7,176.5,159.5,176.6z M159.6,182.2
			c-0.1-0.1,0-0.5,0-0.6c0.1-0.2,0.1-0.4,0.2-0.6c0-0.2,0.4-1.2,0.5-1.1c0.1,0.1,0.1,0.2,0.1,0.3c-0.1,0.4-0.2,0.8-0.4,1.1
			c-0.1,0.1-0.1,0.2-0.2,0.3c-0.1,0.1,0,0.3-0.1,0.4C159.8,182.1,159.7,182.2,159.6,182.2z M160.5,182.5c-0.2,0-0.1,0.1-0.3,0
			C160.2,182.2,160.6,182.2,160.5,182.5z M160.8,189.5C160.8,189.5,160.8,189.5,160.8,189.5c0-0.2,0-0.3,0.1-0.4
			c0.1-0.2,0.4,0,0.2,0.1C161,189.4,160.9,189.4,160.8,189.5z M162.9,185.5c0.1,0.1-0.1,0.3-0.2,0.4c-0.1,0.2-0.2,0.4-0.4,0.6
			c-0.2,0.3-0.3,0.9-0.6,0.9c0-0.1,0.1-0.3,0.2-0.4c0.1-0.2,0.2-0.4,0.3-0.6c0.1-0.2,0.1-0.4,0.2-0.6c0-0.1,0.1-0.2,0.2-0.3
			C162.7,185.5,162.8,185.4,162.9,185.5z M163.1,192.3c-0.2,0-0.2-0.5-0.2-0.6c0-0.3,0.1-0.8,0.4-0.9c0.2-0.1,0.2,0.1,0.3,0.2
			c0,0.1,0.2,0.3,0.2,0.5c0,0.2-0.2,0.3-0.3,0.4C163.3,192,163.2,192.2,163.1,192.3z M166.8,172.8c0.2-0.1,0,0.4-0.1,0.4
			C166.6,173,166.8,172.9,166.8,172.8z M164.5,194c0-0.2,0.2-0.2,0.3-0.3C164.9,193.8,164.7,194.1,164.5,194z M165.2,169.7
			c0,0,0-0.1,0-0.1c0-0.1,0.1-0.1,0.1-0.2c0-0.1,0.1-0.3,0.1-0.4c-0.1-0.2-0.3,0.1-0.4-0.1c-0.1-0.2-0.1-0.4,0-0.6
			c0.1-0.1,0.2-0.4,0.4-0.2c0.1,0.1,0.2,0.2,0.3,0.3c0.1,0.1,0,0.2,0,0.4c0,0.1-0.1,0.2-0.2,0.4
			C165.5,169.3,165.5,169.6,165.2,169.7C165.2,169.7,165.2,169.7,165.2,169.7z M166.6,173.2c0,0.3-0.3,0.7-0.5,1
			C166.1,174,166.4,173.5,166.6,173.2z M166.2,192.3c0-0.1,0.2-0.1,0.3-0.1c0.1,0.2-0.1,0.2-0.1,0.3
			C166.2,192.6,166.4,192.3,166.2,192.3z M166.4,194.2c-0.1-0.1,0-0.2,0.1-0.2c0,0,0.1,0.1,0.1,0.1c0,0,0.1,0,0.1,0.1
			C166.7,194.2,166.5,194.3,166.4,194.2z M166.7,176.5c-0.1-0.1,0-0.5,0.1-0.5c0.1,0,0.2,0.1,0.3,0.2c0,0.1,0.2,0.3,0.1,0.4
			C167.1,176.7,166.9,176.6,166.7,176.5z M203.4,162.5c-0.1,0.2,0,0.1,0,0.4c-0.3-0.1-0.1-0.3-0.3-0.5
			C203.3,162.4,203.3,162.5,203.4,162.5z M193.6,158.3c-0.3,0-0.4-0.2-0.6-0.3C193,158,193.5,158.1,193.6,158.3z M168.5,168.8
			c0.1-0.2,0,0.4-0.2,0.4C168.3,168.9,168.5,168.9,168.5,168.8z M167.7,170.4c0.1,0.2-0.2,0.5-0.3,0.8
			C167.3,170.9,167.6,170.6,167.7,170.4z M171.4,191.7C171.4,191.7,171.3,191.7,171.4,191.7c-0.3,0-0.3,0.1-0.4,0.1
			c-0.1,0-0.2,0-0.2-0.1c0-0.1,0.1-0.2,0.2-0.3c0.1-0.1,0.3-0.1,0.4-0.1c0,0,0,0,0.1,0c0,0,0.1,0.1,0,0.1
			C171.5,191.6,171.5,191.7,171.4,191.7C171.4,191.7,171.4,191.7,171.4,191.7z M171.7,187.6c-0.1,0.1-0.3,0.2-0.4,0.3
			c-0.1,0.1-0.3,0.1-0.5,0.2c-0.1,0-0.3,0.1-0.4,0.2c-0.2,0.1-0.5,0.3-0.7,0.5c-0.2,0.2-0.4,0.3-0.7,0.5c-0.2,0.1-0.6,0.2-0.8,0.4
			c-0.1,0.1-0.4,0.5-0.6,0.4c-0.3-0.1,0.2-0.6,0.3-0.7c0.2-0.2,0.5-0.3,0.7-0.5c0.6-0.3,1.2-0.6,1.6-1.2c0,0,0,0,0-0.1
			c0,0,0,0,0.1,0c0.3-0.1,0.6-0.4,1-0.5c0.1,0,0.4,0,0.5,0.1C172,187.2,171.8,187.5,171.7,187.6z M168.1,188.2c0,0,0-0.2,0.1-0.2
			C168.4,187.9,168.3,188.2,168.1,188.2C168.2,188.2,168.1,188.2,168.1,188.2z M174.2,198.6c-0.2,0-0.2-0.5-0.1-0.6
			c0.2,0,0.2,0.2,0.3,0.3C174.5,198.5,174.3,198.4,174.2,198.6z M175.3,191.4c0.1-0.1,0.2-0.1,0.3-0.1c0.1,0.1,0.1,0.3,0.1,0.5
			C175.6,191.9,175.2,191.7,175.3,191.4z M175.7,199c0.2,0,0.3,0.1,0.3,0.3C175.7,199.3,175.6,199.2,175.7,199z M197.9,186.9
			c-0.1-0.2,0.4-0.4,0.5-0.6C198.4,186.5,198,186.6,197.9,186.9z M200.3,183.8c0.1-0.2,0.3-0.3,0.4-0.6
			C200.8,183.4,200.5,183.7,200.3,183.8z M203.7,175.1c-0.3,3.1-1.7,5.5-3,7.8c-1.4,2.3-3.3,4.2-5.1,5.7c-2.6,1.6-4.3,3-8.2,3.3
			c-6.1,0.4-10.8-1.8-14.2-5.2c-2.6-2.6-4.3-5.8-5-9.4c-0.2-1.1-0.3-2.2-0.4-3.3c-0.1-1.1,0.1-2,0.3-3.1c0.2-1,0.5-2,0.8-3
			c0.6-1.8,1.6-3.5,2.8-5c0.1-0.1,0.2-0.2,0.2-0.3c0.5-0.5,0.9-1.1,1.5-1.6c0.3-0.2,0.6-0.5,0.9-0.7c0.3-0.2,0.6-0.4,0.9-0.6
			c0.1,0,0.1-0.1,0.2-0.1c0.5-0.3,1-0.6,1.5-0.9c0.9-0.5,1.7-0.8,2.5-1c0.6-0.2,1.2-0.3,1.8-0.4c0,0,0.1,0,0.1,0
			c0.1,0,0.2-0.1,0.4-0.1c1.1-0.3,2.2-0.6,3.4-0.6c1,0,2.5,0.1,3.9,0.3c0.3,0,0.5,0.2,0.8,0.3c0.8,0.2,1.8,0.4,2.5,0.7
			c0.4,0.2,0.8,0.4,1.3,0.6c0.3,0.1,0.7,0.2,1,0.3c0.4,0.2,0.8,0.5,1.3,0.8c0.7,0.4,1.5,0.7,2.1,1.3c0.4,0.4,0.9,0.8,1.3,1.3
			c0.4,0.5,0.8,1,1.2,1.5c0.3,0.5,0.5,1.2,1,1.5c0.1,0.1,0.2-0.1,0.4,0c0.2,0.1,0.3,0.4,0.2,0.6c-0.1,0.3,0.1,0.6,0.2,0.9
			c0.1,0.4,0.3,0.8,0.4,1.2c0.3,0.8,0.5,1.6,0.7,2.4C203.7,171.8,203.8,173.5,203.7,175.1z M211.4,164.7c-0.4-0.5,0.3-1.1,0.5-1.5
			C211.9,163.6,211.7,164.3,211.4,164.7z M212.1,163.1c-0.1-0.1,0.1-0.3,0.1-0.5C212.4,162.8,212.1,163,212.1,163.1z"/>
	</g>
	<g>
		<path class="st1" d="M131.1,245c-0.6-0.1-1.2-0.2-1.8-0.3c-0.2,0-0.4-0.3-0.5-0.4c-0.3-0.7-0.7-0.7-0.4-1.4
			c0.6-1.8,1.5-4.3,2.2-6.1c0.9-2.6,1.9-5.3,2.8-7.9c1.5-4,2.8-8.1,4.3-12.1c0.2-0.5,0.6-0.5,1.5-0.5c0.2,0,2-0.2,2.3,0.6
			c0.6,1.4,1.2,3.7,1.8,5.2c0.3,0.9,0.7,1.9,1,2.8c0.5,1.3,0.9,2.7,1.3,4c0.2,0.5,0.4,0.9,0.5,1.3c0.5,1.6,0.9,3.3,1.4,4.9
			c0.5,1.5,1.1,2.9,1.5,4.4c0.3,0.9,0.4,1.7,0.6,2.6c0,0.2,0.2,0.3,0.2,0.5c0.1,0.6,0.1,0.3,0.2,0.9c0.1,0.5-0.2,0.9-0.4,1
			c-0.5,0.2-1.1,0.5-1.7,0.7c-0.9,0.3-2.1,0.7-2.5-0.4c-0.9-2.5-2.1-6-2.9-8.5c-0.1-0.4-0.3-0.6-0.7-0.6c-1.5,0-3,0-4.5,0
			c-0.2,0-0.3,0-0.5,0c-0.5,0-1.1-0.2-1.4,0.3c-0.5,0.8-0.6,1.7-0.9,2.6c-0.3,1-0.5,2-0.9,2.9c-0.4,0.9-0.8,1.8-1.2,2.8
			C132.3,244.8,131.7,245,131.1,245z M141.3,231.4c0.1-0.1,0.1-0.3,0.1-0.6c-0.3-1.8-1-3.6-1.5-5.5c-0.1-0.2-0.1-0.9-0.4-0.8
			c-0.4,0.1-0.6,0.9-0.7,1.2c-0.2,0.6-0.3,1.1-0.5,1.7c-0.2,0.7-0.5,1.7-0.7,2.4c-0.1,0.3-0.2,0.6-0.3,1c-0.2,1.1,1.4,0.8,2.1,0.8
			C139.9,231.6,141,231.9,141.3,231.4z"/>
		<path class="st1" d="M106.1,231.7c-0.1,0-0.1,0-0.2,0c-0.5,0.2-0.6,0.7-0.9,1.1c-0.4,0.5-0.8,1-1,1.6c-0.2,0.8-0.1,1-0.1,1.7
			c0,0.5,0,0.7,0,1.3c0,1.4,0,2.7-0.1,4.1c-0.1,0.9-0.2,1.9-0.4,2.8c-0.1,0.5-0.5,0.5-0.8,0.5c-0.7,0.1-1.8,0.1-2.5,0.1
			c-0.7,0-0.9-0.3-0.9-1c0-0.9-0.1-1.8-0.2-2.7c0-0.6,0-1.3,0-1.9c0-0.8,0-1.6,0-2.5c0-0.4,0-0.9,0-1.3c0.1-1.9,0.2-3.7,0.2-5.6
			c0-1-0.1-1.9-0.1-2.9c0-2.2,0-4.4-0.1-6.6c0-1.1,0.1-2.3,0-3.4c-0.1-0.9,0.7-1.3,1.5-1.2c0.8,0.1,2-0.1,2.4,0.3
			c0.6,0.7,0.6,2.3,0.6,3.5c0,1.1-0.2,0.7-0.1,1.7c0.1,0.9,0.1,3.2,0.2,4.1c0.1,0.7,0.1,1.4,0.1,2c0,0.2,0.3,0.3,0.4,0.2
			c0.5-0.4,1.6-2,2.4-3.1c1-1.4,1.9-2.8,3-4.1c0.9-1.1,1.4-2,2.3-3.1c0.3-0.4,0.6-1,1-1.3c0.5-0.4,1.1-0.1,1.5,0.2
			c0.6,0.5,1.4,0.9,1.5,1.7c0,0.2-0.4,0.8-0.5,1c-0.6,1.2-1.2,2-1.8,3c-0.8,1.1-1.7,2.1-2.5,3.2c-0.6,0.8-1,1.3-1.4,2.2
			c-0.2,0.3,0,0.9,0.2,1.3c0.5,0.8,0.9,1.8,1.5,2.6c0.6,1,1.3,2,1.9,3c0.7,1.3,1.2,2.6,2,3.8c0.5,0.9,0.9,1.8,1.4,2.6
			c0.5,0.9,0.9,1.5,0.9,2.4c0,0.4-0.4,0.6-0.6,0.7c-0.3,0.2-0.4,0.1-1,0.5c-0.6,0.4-1.1,0.5-1.7,0.5c-0.2,0-0.5-0.2-0.6-0.4
			c-0.7-1.1-1.5-2.3-2.1-3.5c-0.7-1.3-1.3-2.7-1.9-4.1c-0.7-1.6-1.5-2.2-2.2-3.8C107,232.8,106.7,231.7,106.1,231.7z"/>
		<path class="st1" d="M198.1,244.6c-0.4,0-0.8,0-1.1,0c-0.8,0-1.8,0.3-2.1-0.5c-0.4-1-0.2-2.1-0.2-3.1c0-0.5,0-1,0-1.5
			c0-1.4,0-2.5,0-3.9c0.1-4.2,0.1-5.3,0.2-9.2c0-0.4,0.2-4.8-0.3-4.9c-0.8-0.2-1.1,0-1.7,0c-0.8-0.1-3.2,0-4-0.2
			c-0.7-0.2-0.6-0.3-0.8-0.9c-0.1-0.3,0-0.9,0-1.4c0-0.5,0-1.1,0.2-1.6c0.1-0.3,0.3-0.7,0.5-0.7c0.7-0.1,1.6-0.1,2.4-0.1
			c4.1-0.1,7.7,0,11.4,0.1c0.9,0,2.3-0.1,3.2,0c1,0,0.9,0.3,1.1,1.1c0.1,0.3,0,0.6,0.2,1c0.3,0.5,0,0.9,0,1.6c0,1.3-1.5,1-2.4,1
			c-0.9,0-1.8-0.1-2.7,0c-1,0.1-1.4-0.4-1.4,1.1c0,1.5,0,3.3,0,4.9c0,0.8,0,2.1,0,2.9c-0.1,1.6-0.2,3.2-0.2,4.8c0,1.8,0,3.7-0.1,5.5
			c0,1.2,0,1.7-0.1,2.9C199.9,244.5,199,244.7,198.1,244.6z"/>
		<path class="st1" d="M167.8,228.2c0.8,0.3,3.7,0,4,0c0.7,0.1,3.4,0,4.1,0.2c0.4,0.2,0.5,0.4,0.5,0.8c0.1,0.8,0,1.3-0.1,1.8
			c0,0.3,0,0.7-0.7,0.9c-0.8,0.3-3.6,0.1-4.4,0.2c-1.2,0.1-3.2-0.2-3.4,0.3c-0.4,1.2-0.5,2.3-0.5,3.6c0,2.2,0.1,4.3,0,6.5
			c0,0.6-0.1,1.2-0.2,1.8c-0.1,0.6-0.3,0.7-0.9,0.7c-0.8,0.1-1.7,0-2.6,0c-0.6,0-1-0.4-1-1.1c0-2.4,0.1-4.7,0.1-7.1
			c0-3.3-0.2-6.6-0.2-9.9c0-2.1,0-3.5-0.1-5.6c0-0.9-0.1-2.4,0-3.3c0-0.1,0-0.2,0-0.3c-0.1-0.5,0-1,0.7-1.2c0.4-0.1,0.8-0.3,1.3-0.2
			c0.9,0.2,1.9,0,2.9,0.1c1.6,0,3.1,0.1,4.7,0.1c0.5,0,3,0,3.6,0c0.7-0.1,1.6,0.1,2.2,0.2c0.5,0.1,0.5,0.8,0.4,1.4
			c-0.1,0.8,0.2,2.6-1.2,2.6c-1,0-4.1-0.1-5.1-0.1c-1.3,0-2.3,0-3.6,0.1c-0.2,0-0.9,0.2-0.9,1c0,1.4,0,1.6,0,3.4
			C167.4,226,167.2,228,167.8,228.2z"/>
	</g>
</g>
</svg>
