<?xml version="1.0" encoding="utf-8"?>
<!-- Generator: Adobe Illustrator 24.0.1, SVG Export Plug-In . SVG Version: 6.00 Build 0)  -->
<svg version="1.1" id="Layer_1" xmlns="http://www.w3.org/2000/svg" xmlns:xlink="http://www.w3.org/1999/xlink" x="0px" y="0px"
	 viewBox="0 0 70 40" style="enable-background:new 0 0 70 40;" xml:space="preserve">
<style type="text/css">
	.st0{filter:url(#Adobe_OpacityMaskFilter);}
	.st1{fill:#FFFFFF;}
	.st2{mask:url(#b_1_);}
	.st3{fill:#FEFEFE;}
</style>
<g>
	<g transform="translate(21.78 .197)">
		<defs>
			<filter id="Adobe_OpacityMaskFilter" filterUnits="userSpaceOnUse" x="15.9" y="4.6" width="30.4" height="30.4">
				<feColorMatrix  type="matrix" values="1 0 0 0 0  0 1 0 0 0  0 0 1 0 0  0 0 0 1 0"/>
			</filter>
		</defs>
		<mask maskUnits="userSpaceOnUse" x="15.9" y="4.6" width="30.4" height="30.4" id="b_1_">
			<g class="st0">
				<path id="a_1_" class="st1" d="M15.9,4.6h30.4V35H15.9V4.6z"/>
			</g>
		</mask>
		<path class="st2" d="M33.1,5.5l12.2,12.2c1.1,1.2,1.1,3,0,4.2L33.1,34.1c-1.2,1.1-3,1.1-4.2,0L16.7,21.9c-1.2-1.1-1.2-3,0-4.1
			c0,0,0,0,0,0L29,5.5C30.1,4.3,32,4.3,33.1,5.5C33.1,5.5,33.1,5.5,33.1,5.5"/>
	</g>
	<path class="st3" d="M58.3,10.7c0,0,0,7.7,0,9.3c0,0.7-0.6,1.2-1.2,1.2h-6.2L58.3,10.7z M58.1,10.8l-9.7,10.5h-5.5
		c-0.3,0-0.5-0.2-0.4-0.5c0.1-0.2,0.2-0.3,0.3-0.4L58.1,10.8"/>
	<path d="M29.8,21.6c-1.1,0-2.2-0.2-3.2-0.4l0.9-2.1c0.7,0.3,1.5,0.6,2.4,0.6c0.7,0,1.7-0.2,2-1.1c0.5-1.5-3.1-2.7-2.2-5.1
		c0.6-1.7,2.2-2.9,5-2.9c1,0,2.1,0.1,3.1,0.3L36.9,13c-0.6-0.3-1.2-0.5-2-0.5c-0.9,0-1.8,0.1-2.1,1c-0.5,1.3,3.1,2.6,2.1,5.2
		C34.2,20.9,31.5,21.6,29.8,21.6 M19.4,21.6c-3.4,0.1-3-2-2.7-3c1.5-4.3,8.5-2.9,9.3-5.2c0.4-1-0.7-1.2-1.5-1.2
		c-0.8,0.1-1.6,0.2-2.4,0.4l0.7-1.7c1.1-0.2,1.5-0.3,3.1-0.4c1.9-0.1,4,0.4,3.1,2.7c-0.6,1.5-2.1,4.9-3.2,8l-2.8,0
		c0.1-0.3,0.3-0.7,0.3-0.7S21.2,21.5,19.4,21.6 M23.8,19.1c0.3-0.8,0.7-1.8,1.3-3.2c-1.4,1-4.9,0.9-5.6,2.8c-0.3,1,0.5,1.3,1.3,1.3
		C22.2,19.8,23.8,19.1,23.8,19.1 M39,12.9c-0.5,0-0.7-0.4-0.6-0.9c0.1-0.5,0.6-0.9,1.1-0.9c0.5,0,0.7,0.4,0.6,0.9
		C40,12.5,39.5,12.9,39,12.9z M38.9,13c0.7,0,1.2-0.5,1.4-1.1c0.1-0.6-0.1-1-0.8-1c-0.7,0-1.2,0.5-1.4,1.1C38,12.6,38.2,13,38.9,13z
		 M38.8,12.6c0.1-0.4,0.2-0.7,0.3-1.1h0.3c0.1,0,0.2,0,0.1,0.2c0,0.2-0.2,0.2-0.4,0.2c0,0-0.1,0-0.1,0c0.1,0.2,0.1,0.5,0.2,0.7h0.3
		c-0.1-0.2-0.2-0.4-0.3-0.6c0.1,0,0.4,0,0.5-0.4c0.1-0.2-0.1-0.3-0.3-0.3h-0.6c-0.1,0.4-0.2,0.8-0.3,1.3L38.8,12.6L38.8,12.6z
		 M4.9,21.6c-3.4,0.1-3-2-2.7-3c1.5-4.3,8.5-2.9,9.3-5.2c0.4-1-0.7-1.2-1.5-1.2c-0.8,0.1-1.6,0.2-2.4,0.4l0.7-1.7
		c1.1-0.2,1.5-0.3,3.1-0.4c1.8-0.1,3.9,0.4,3.1,2.7c-0.5,1.5-2.1,4.9-3.2,8l-2.8,0c0.1-0.3,0.3-0.7,0.3-0.7S6.7,21.5,4.9,21.6
		 M9.3,19.1c0.3-0.8,0.7-1.8,1.3-3.2c-1.4,1-5,0.9-5.6,2.8c-0.4,1,0.5,1.3,1.3,1.3C7.7,19.8,9.3,19.1,9.3,19.1"/>
	<path d="M17.9,14c-0.7,1.8-2.8,7.4-2.8,7.4l-2.9,0c0.1-0.2,1.7-4.5,2.9-7.5c1.3-2.9,2.8-3.4,5-3.3c0.6,0,1.3,0.1,1.9,0.3l-0.8,1.8
		C20.1,12.3,18.5,12.2,17.9,14 M13.8,27.2c-0.4,0.1-0.8,0.2-1.2,0.2c-0.9,0-1.1-0.5-0.8-1.4c0.3-0.9,1-1.6,2-1.6
		c0.4,0,0.8,0.1,1.1,0.2l0.3-1c-0.4-0.1-0.9-0.2-1.3-0.2c-2.5,0-3.3,2.2-3.4,2.6c-0.5,1.5,0,2.3,1.5,2.3c0.4,0,0.9-0.1,1.4-0.2
		L13.8,27.2z M25.8,24.4c-0.2,0.6-0.4,1.1-0.7,1.7c-0.4,0.6-1,1.2-1.7,1.2c-0.8,0-1-0.5-0.7-1.2c0.2-0.5,0.8-1.8,2.4-1.8
		C25.3,24.4,25.6,24.4,25.8,24.4z M20.5,30.2c0.6,0.2,1.3,0.3,2,0.3c1.4,0,2.4-0.4,3-1.9c0.6-1.6,1.3-3.3,2-4.9
		c-0.6-0.1-1.3-0.2-1.9-0.2c-2.8,0-3.8,2-4.1,2.8c-0.4,1.3,0,2.1,1.3,2.1c0.7,0,1.4-0.3,1.9-0.8h0c-0.4,1-0.7,2.1-2.1,2.1
		c-0.6,0-1.2-0.1-1.7-0.4L20.5,30.2z M30,24.4c0.8,0,1,0.6,0.7,1.4c-0.3,0.8-1,1.6-1.9,1.6c-0.8,0-1-0.6-0.7-1.4
		C28.3,25.2,29,24.4,30,24.4 M30.3,23.4c-1.6,0-3,1-3.6,2.6c-0.4,1-0.2,2.3,1.7,2.3c2.2,0,3.2-1.6,3.5-2.5
		C32.5,24.3,31.8,23.4,30.3,23.4"/>
	<path d="M15,28.3c-1.5,0.1-1.4-0.9-1.2-1.3c0.7-1.9,3.8-1.3,4.2-2.3c0.2-0.5-0.3-0.6-0.7-0.5c-0.4,0-0.7,0.1-1.1,0.2l0.3-0.8
		c0.5-0.1,0.7-0.1,1.4-0.2c0.8-0.1,1.8,0.2,1.4,1.3c-0.2,0.7-0.9,2.2-1.4,3.6h-1.3c0.1-0.1,0.1-0.3,0.1-0.3S15.9,28.3,15,28.3
		 M17,27.2c0.1-0.3,0.3-0.8,0.6-1.4c-0.6,0.4-2.2,0.4-2.5,1.3c-0.1,0.4,0.2,0.6,0.6,0.6C16.3,27.5,17,27.2,17,27.2 M21,24.9
		c-0.3,0.8-1.2,3.3-1.2,3.3h-1.3c0-0.1,0.8-2,1.3-3.4c0.6-1.3,1.2-1.5,2.2-1.5c0.3,0,0.6,0.1,0.9,0.1l-0.3,0.8
		C22,24.2,21.3,24.1,21,24.9"/>
</g>
</svg>
