<?xml version="1.0" encoding="utf-8"?>
<!-- Generator: Adobe Illustrator 24.0.1, SVG Export Plug-In . SVG Version: 6.00 Build 0)  -->
<svg version="1.1" id="Layer_1" xmlns="http://www.w3.org/2000/svg" xmlns:xlink="http://www.w3.org/1999/xlink" x="0px" y="0px"
	 viewBox="0 0 70 40" style="enable-background:new 0 0 70 40;" xml:space="preserve">
<style type="text/css">
	.st0{filter:url(#Adobe_OpacityMaskFilter);}
	.st1{fill:#FFFFFF;}
	.st2{mask:url(#b_1_);}
	.st3{filter:url(#Adobe_OpacityMaskFilter_1_);}
	.st4{mask:url(#d_1_);}
</style>
<g>
	<path d="M16.5,12.7c0.2-0.4-0.2-0.9-0.9-1c-0.7-0.2-1.6,0-1.8,0.4L4.3,26.2C3.8,27,4.1,28,5.1,28.3c1,0.4,2.3-0.1,2.8-0.9
		L16.5,12.7L16.5,12.7z"/>
	<g transform="translate(0 .091)">
		<defs>
			<filter id="Adobe_OpacityMaskFilter" filterUnits="userSpaceOnUse" x="0.6" y="11.5" width="8.5" height="16.9">
				<feColorMatrix  type="matrix" values="1 0 0 0 0  0 1 0 0 0  0 0 1 0 0  0 0 0 1 0"/>
			</filter>
		</defs>
		<mask maskUnits="userSpaceOnUse" x="0.6" y="11.5" width="8.5" height="16.9" id="b_1_">
			<g class="st0">
				<path id="a_1_" class="st1" d="M0.6,11.5h8.5v16.9H0.6V11.5z"/>
			</g>
		</mask>
		<path class="st2" d="M1,28.3c-0.5-0.2-0.6-0.6-0.3-1l5.4-7.4c0.4-0.6,0-1.2,0-1.2l-4.9-6c-0.3-0.4,0-0.9,0.8-1.1
			c0.7-0.2,1.6-0.1,1.9,0.2l5,5.5c0,0,0.4,0.5,0,1.1l-6.5,9.5C2.1,28.3,1.5,28.5,1,28.3"/>
	</g>
	<g transform="translate(9.807 .091)">
		<defs>
			<filter id="Adobe_OpacityMaskFilter_1_" filterUnits="userSpaceOnUse" x="3.8" y="11.5" width="12.2" height="16.9">
				<feColorMatrix  type="matrix" values="1 0 0 0 0  0 1 0 0 0  0 0 1 0 0  0 0 0 1 0"/>
			</filter>
		</defs>
		<mask maskUnits="userSpaceOnUse" x="3.8" y="11.5" width="12.2" height="16.9" id="d_1_">
			<g class="st3">
				<path id="c_1_" class="st1" d="M3.8,11.5H16v16.9H3.8V11.5z"/>
			</g>
		</mask>
		<path class="st4" d="M13.3,11.5c-0.4-0.1-0.5,0-0.8,0.2L4,18.1c0,0-0.6,0.5,0.1,1.2l8.2,8.3c0.8,0.8,2.1,1,3,0.5
			c0.8-0.5,0.8-1.5,0-2.3l-8.4-7.8c-0.3-0.3-0.3-0.4,0-0.6l6.8-5.5C13.9,11.8,13.6,11.6,13.3,11.5"/>
	</g>
	<path d="M51.5,20.3c0.2,0.2,0.2,0.5,0,0.7c-0.2,0.2-0.5,0.2-0.7,0l-1.9-1.9c-0.2-0.2-0.2-0.5,0-0.7l0,0l1.9-1.9
		c0.2-0.2,0.5-0.2,0.7,0c0.2,0.2,0.2,0.5,0,0.7L50,18.8L51.5,20.3L51.5,20.3z M59.8,16.9c0,0.3-0.2,0.5-0.5,0.5
		c-0.8,0-1.4,0.6-1.4,1.4v1.9c0,0.3-0.2,0.5-0.5,0.5c-0.3,0-0.5-0.2-0.5-0.5v-1.9c0-1.3,1.1-2.4,2.4-2.4
		C59.6,16.4,59.8,16.6,59.8,16.9"/>
	<path d="M54.1,16.4c-1.3,0-2.4,1.1-2.4,2.4c0,1.3,1.1,2.4,2.4,2.4c0.5,0,1-0.2,1.4-0.4c0,0.3,0.3,0.5,0.6,0.4
		c0.3,0,0.4-0.3,0.4-0.5v-1.9C56.5,17.5,55.4,16.4,54.1,16.4 M54.1,20.2c-0.8,0-1.4-0.7-1.3-1.4c0-0.7,0.6-1.3,1.3-1.3
		c0.8,0,1.3,0.7,1.3,1.5C55.3,19.6,54.8,20.1,54.1,20.2"/>
	<path d="M38,16.9c0,0.3-0.2,0.5-0.5,0.5c-0.8,0-1.4,0.6-1.4,1.4v1.9c0,0.3-0.3,0.5-0.5,0.5c-0.3,0-0.5-0.2-0.5-0.5v-1.9
		c0-1.3,1.1-2.4,2.4-2.4C37.8,16.4,38,16.6,38,16.9 M34.1,16.4c-0.3,0-0.5,0.2-0.5,0.5v1.9c0,0.7-0.5,1.3-1.3,1.3c0,0,0,0-0.1,0
		c-0.7,0-1.3-0.5-1.3-1.3c0,0,0,0,0-0.1v-1.9c0-0.3-0.2-0.5-0.5-0.5c-0.3,0-0.5,0.2-0.5,0.5v1.9c0,1.3,1,2.4,2.4,2.4
		c1.3,0,2.3-1,2.4-2.3c0,0,0,0,0-0.1v-1.9C34.6,16.6,34.4,16.4,34.1,16.4 M40.1,16.4h-0.8v-0.9c0-0.3-0.2-0.5-0.5-0.5
		s-0.5,0.2-0.5,0.5v0v5.2c0,0.3,0.2,0.5,0.5,0.5s0.5-0.2,0.5-0.5v0v-3.3h0.8c0.3,0,0.5-0.2,0.5-0.5C40.7,16.6,40.4,16.4,40.1,16.4
		L40.1,16.4 M41.6,16.4c-0.3,0-0.5,0.2-0.5,0.5v3.8c0,0.3,0.2,0.5,0.5,0.5c0.3,0,0.5-0.2,0.5-0.5l0,0v-3.8
		C42.1,16.6,41.9,16.4,41.6,16.4 M41.6,15c-0.3,0-0.5,0.2-0.5,0.5s0.2,0.5,0.5,0.5c0.3,0,0.5-0.2,0.5-0.5S41.9,15,41.6,15L41.6,15
		 M47.9,16.4c-0.3,0-0.5,0.2-0.5,0.5v3.8c0,0.3,0.2,0.5,0.5,0.5c0.3,0,0.5-0.2,0.5-0.5c0,0,0,0,0-0.1v-3.8
		C48.4,16.6,48.2,16.4,47.9,16.4L47.9,16.4 M47.4,15.5c0-0.3,0.2-0.5,0.5-0.5c0.3,0,0.5,0.2,0.5,0.5c0,0.3-0.2,0.5-0.5,0.5
		C47.6,16.1,47.4,15.8,47.4,15.5 M46,19.8c-0.5,0.5-1.4,0.5-2,0c-0.5-0.5-0.5-1.4,0-2s1.4-0.5,2,0l0,0c0.2,0.2,0.5,0.2,0.7,0
		c0.2-0.2,0.2-0.5,0-0.7c0,0,0,0,0,0c-0.9-0.9-2.5-0.9-3.4,0c-0.9,0.9-0.9,2.5,0,3.4c0.3,0.3,0.7,0.6,1.2,0.7c0,0,0,0,0,0.1v0.5
		c0,0.3,0.2,0.5,0.5,0.5c0.3,0,0.5-0.2,0.5-0.5v-0.5c0,0,0,0,0-0.1c0.5-0.1,0.9-0.3,1.2-0.7c0.2-0.2,0.2-0.5,0-0.7
		C46.6,19.6,46.2,19.6,46,19.8C46,19.8,46,19.8,46,19.8"/>
	<path d="M67,16.4c-1.3,0-2.4,1.1-2.4,2.4c0,1.3,1.1,2.4,2.4,2.4c1.3,0,2.4-1.1,2.4-2.4C69.4,17.5,68.3,16.4,67,16.4 M67,20.2
		c-0.8,0-1.4-0.7-1.3-1.4c0-0.7,0.6-1.3,1.3-1.3c0.8,0,1.4,0.7,1.3,1.5C68.3,19.6,67.7,20.1,67,20.2 M64.3,21.6
		c0,1.3-1.1,2.4-2.4,2.4c-1.1,0-0.9-0.7-0.9-0.7s0.1-0.4,0.5-0.4c0.1,0,0.2,0,0.4,0c0.7,0,1.3-0.6,1.3-1.4l0-0.8
		c-1.1,0.8-2.6,0.5-3.4-0.6c-0.3-0.4-0.4-0.9-0.4-1.4c0-1.3,1.1-2.4,2.4-2.4c1.3,0,2.4,1.1,2.4,2.4V21.6L64.3,21.6z M63.3,18.8
		c0-0.8-0.7-1.3-1.5-1.3c-0.7,0-1.3,0.6-1.3,1.3c0,0.8,0.7,1.3,1.5,1.3C62.7,20.1,63.2,19.5,63.3,18.8z"/>
	<path d="M27.1,22.9c0.7,0,1.3-0.6,1.3-1.4l0-0.8c-0.4,0.3-0.8,0.4-1.3,0.4c-1.3,0-2.4-1-2.4-2.3c0,0,0,0,0-0.1v-1.9
		c0-0.3,0.3-0.5,0.5-0.5c0.3,0,0.5,0.2,0.5,0.5v1.9c0,0.8,0.6,1.3,1.3,1.3c0.7,0,1.3-0.5,1.3-1.3c0,0,0,0,0-0.1v-1.9
		c0-0.3,0.2-0.5,0.5-0.5c0.3,0,0.5,0.2,0.5,0.5v4.7c0,1.3-1.1,2.4-2.4,2.4c-1,0-0.9-0.7-0.9-0.7s0.1-0.4,0.5-0.4
		C26.8,22.9,26.9,22.9,27.1,22.9"/>
</g>
</svg>
