<?xml version="1.0" encoding="utf-8"?>
<!-- Generator: Adobe Illustrator 24.0.1, SVG Export Plug-In . SVG Version: 6.00 Build 0)  -->
<svg version="1.1" id="Layer_1" xmlns="http://www.w3.org/2000/svg" xmlns:xlink="http://www.w3.org/1999/xlink" x="0px" y="0px"
	 viewBox="0 0 70 40" style="enable-background:new 0 0 70 40;" xml:space="preserve">
<g id="Layer_1_1_">
	<g>
		<g>
			<path d="M60.5,21l-5.1-0.6l-2.9-5c-0.7-1.4-2.2-2.1-3.8-2.1h-5.4c-0.6,0-0.9,0.5-0.9,0.9v10.9H29.9c-0.6,0-0.9,0.5-0.9,0.9v2.9
				c0,0.5,0.5,0.9,0.9,0.9h1.8c0.3,2.1,2,3.9,4.2,3.9c2.2,0,4-1.7,4.2-3.9h10.6c0.3,2.2,2,3.9,4.2,3.9s4-1.7,4.2-3.9H60
				c1,0,1.9-0.8,1.9-1.9V23C62.1,21.9,61.3,21.1,60.5,21z M35.9,31.8c-1.3,0-2.2-1-2.2-2.2c0-1.2,1-2.2,2.2-2.2c1.3,0,2.2,1,2.2,2.2
				C38.1,30.7,37.1,31.8,35.9,31.8z M51.9,20.2h-6.2c-0.1,0-0.3-0.1-0.3-0.3V16c0-0.1,0.1-0.3,0.3-0.3h3.1c0.6,0,1.1,0.3,1.5,0.8
				l1.8,3.3C52.2,20.1,52.1,20.2,51.9,20.2z M54.9,31.8c-1.3,0-2.2-1-2.2-2.2c0-1.2,1-2.2,2.2-2.2c1.2,0,2.2,1,2.2,2.2
				C57.1,30.7,56.2,31.8,54.9,31.8z"/>
		</g>
		<path d="M13.5,14.4H25c0.3,0,0.6-0.3,0.6-0.6V13c0-0.3-0.3-0.6-0.6-0.6H13.5c-0.3,0-0.6,0.3-0.6,0.6v0.9
			C12.9,14.1,13.1,14.4,13.5,14.4z"/>
		<path d="M8.7,27.9h16.1c0.3,0,0.6-0.3,0.6-0.6v-0.9c0-0.3-0.3-0.6-0.6-0.6H8.7c-0.3,0-0.6,0.3-0.6,0.6v0.9
			C8.2,27.6,8.5,27.9,8.7,27.9z"/>
		<path d="M20,34.6h9.7c0.3,0,0.6-0.3,0.6-0.6v-0.9c0-0.3-0.3-0.6-0.6-0.6H20c-0.3,0-0.6,0.3-0.6,0.6V34
			C19.4,34.3,19.6,34.6,20,34.6z"/>
		<path d="M19.8,7.7h16.1c0.3,0,0.6-0.3,0.6-0.6V6.2c0-0.3-0.3-0.6-0.6-0.6H19.8c-0.3,0-0.6,0.3-0.6,0.6v0.9
			C19.2,7.3,19.4,7.7,19.8,7.7z"/>
		<path d="M16.9,21.1h8.2c0.3,0,0.6-0.3,0.6-0.6v-0.9c0-0.3-0.3-0.6-0.6-0.6h-8.2c-0.3,0-0.6,0.3-0.6,0.6v0.9
			C16.2,20.8,16.5,21.1,16.9,21.1z"/>
		<g>
			<path d="M33.6,20.4c-0.4,0-0.6,0.3-0.6,0.6c0,0.4,0.3,0.6,0.6,0.6s0.6-0.3,0.6-0.6C34.2,20.7,34,20.4,33.6,20.4z"/>
			<path d="M33.6,13.8c-0.9,0-1.7,0.7-1.7,1.7s0.7,1.7,1.7,1.7c0.9,0,1.7-0.7,1.7-1.7S34.6,13.8,33.6,13.8z"/>
			<path d="M40.2,9.9H28.1c-0.6,0-0.9,0.5-0.9,0.9v11.9c0,0.5,0.5,0.9,0.9,0.9h12.1c0.5,0,0.9-0.5,0.9-0.9V10.8
				C41.1,10.3,40.8,9.9,40.2,9.9z M33.6,22.4c-0.7,0-1.4-0.6-1.4-1.4c0-0.8,0.6-1.4,1.4-1.4S35,20.3,35,21
				C35,21.8,34.5,22.4,33.6,22.4z M33.6,19.1c-1.9,0-3.5-1.5-3.5-3.5c0-1.9,1.5-3.5,3.5-3.5s3.5,1.5,3.5,3.5S35.6,19.1,33.6,19.1z
				 M37.1,13.2c-0.5,0-0.9-0.5-0.9-0.9c0-0.6,0.5-0.9,0.9-0.9c0.6,0,0.9,0.5,0.9,0.9S37.7,13.2,37.1,13.2z"/>
		</g>
	</g>
</g>
</svg>
